<svg xmlns="http://www.w3.org/2000/svg" viewBox="0 0 100.61 100.61"><defs><style>.cls-1{fill:#92755a;}.cls-2{fill:#7f664e;}.cls-3{fill:#bcd73d;}.cls-4{fill:#cfe561;}.cls-5{fill:#f0ffaf;}.cls-6{fill:#424548;}</style></defs><g id="Calque_2" data-name="Calque 2"><g id="Calque_1-2" data-name="Calque 1"><path class="cls-1" d="M59.79,100.61C-19.93,100.61-19.93,0,59.79,0Z"/><ellipse class="cls-2" cx="59.79" cy="50.31" rx="40.82" ry="50.31"/><ellipse class="cls-3" cx="59.79" cy="50.31" rx="38.45" ry="47.38"/><ellipse class="cls-4" cx="59.79" cy="50.31" rx="33.62" ry="41.42"/><path class="cls-3" d="M86.2,59.15c-.52,2.39-10.32,0-11.28,2s5.53,11.41,4.16,13.09S70.18,67.82,68.49,69s.2,13.28-1.7,13.9-5.07-11-7.06-11-5.18,11.63-7.12,11S52.64,70.13,51,69s-9.25,6.82-10.62,5.12,5.22-11,4.25-13-10.78.25-11.29-2.1,9-6.25,9-8.69-9.43-6.39-8.9-8.78,10.32,0,11.28-2S39.13,28,40.5,26.36s8.9,6.43,10.59,5.23-.19-13.28,1.71-13.9,5.07,11,7.05,11S65,17.11,67,17.75s0,12.73,1.63,13.92,9.26-6.82,10.62-5.13S74,37.5,75,39.59s10.78-.24,11.28,2.1-9,6.25-9,8.69S86.73,56.76,86.2,59.15Z"/><polygon class="cls-5" points="82.12 50.31 68.6 53.22 79.13 64.07 66.24 58.25 70.97 74.13 62.16 61.16 59.79 77.82 57.43 61.16 48.62 74.13 53.35 58.25 40.45 64.07 50.98 53.22 37.46 50.31 50.98 47.39 40.46 36.54 53.34 42.36 48.63 26.48 57.43 39.45 59.79 22.79 62.16 39.45 70.96 26.48 66.24 42.36 79.13 36.55 68.6 47.39 82.12 50.31"/><polygon class="cls-6" points="55.17 25.79 54.43 29.85 56.61 33.02 57.36 28.96 55.17 25.79"/><polygon class="cls-6" points="50.91 20.13 50.17 24.19 52.35 27.36 53.1 23.3 50.91 20.13"/><polygon class="cls-6" points="66.06 24.91 63.21 27.13 62.93 31.28 65.78 29.06 66.06 24.91"/><polygon class="cls-6" points="64.41 74.82 65.15 70.76 62.97 67.6 62.22 71.65 64.41 74.82"/><polygon class="cls-6" points="68.67 80.48 69.42 76.43 67.23 73.26 66.49 77.31 68.67 80.48"/><polygon class="cls-6" points="53.52 75.7 56.38 73.48 56.65 69.34 53.8 71.55 53.52 75.7"/><polygon class="cls-6" points="79.68 44.62 76.39 43.7 73.82 46.39 77.11 47.31 79.68 44.62"/><polygon class="cls-6" points="84.28 39.36 80.99 38.45 78.42 41.13 81.71 42.06 84.28 39.36"/><polygon class="cls-6" points="80.39 58.03 78.6 54.51 75.24 54.18 77.03 57.69 80.39 58.03"/><polygon class="cls-6" points="39.9 55.99 43.19 56.91 45.76 54.22 42.47 53.3 39.9 55.99"/><polygon class="cls-6" points="35.31 61.25 38.6 62.17 41.17 59.48 37.88 58.55 35.31 61.25"/><polygon class="cls-6" points="39.19 42.58 40.99 46.1 44.35 46.43 42.55 42.92 39.19 42.58"/><polygon class="cls-6" points="75.74 34.58 72.44 35.51 71.07 39.3 74.36 38.38 75.74 34.58"/><polygon class="cls-6" points="78.03 27.4 74.75 28.32 73.37 32.12 76.66 31.2 78.03 27.4"/><polygon class="cls-6" points="41.55 73.21 44.84 72.29 46.21 68.49 42.92 69.42 41.55 73.21"/><polygon class="cls-6" points="47.03 30.66 47.78 34.71 50.86 36.41 50.12 32.35 47.03 30.66"/><polygon class="cls-6" points="41.2 27.82 41.95 31.87 45.03 33.57 44.28 29.52 41.2 27.82"/><polygon class="cls-6" points="78.38 72.79 77.63 68.73 74.55 67.04 75.3 71.1 78.38 72.79"/></g></g></svg>