<svg xmlns="http://www.w3.org/2000/svg" viewBox="0 0 55.42 55.39"><defs><style>.cls-1{fill:#9dc44c;}.cls-2{fill:#708739;}.cls-3{fill:#cf4e3f;}.cls-4{fill:#faefef;}</style></defs><g id="Calque_2" data-name="Calque 2"><g id="Calque_1-2" data-name="Calque 1"><path class="cls-1" d="M19.87,10.24C21.17,6.67,31.08,0,31.08,0s3.13,11.88,1.83,15.45A6.7,6.7,0,0,1,24,19.3,7.2,7.2,0,0,1,19.87,10.24Z"/><path class="cls-2" d="M14,17.39c-1.59-3.45.72-15.2.72-15.2s10.58,6.17,12.17,9.62a6.75,6.75,0,0,1-3.57,9A7.13,7.13,0,0,1,14,17.39Z"/><path class="cls-1" d="M17.26,14.08c-3.44-1.59-15.13.77-15.13.77s6.18,10.61,9.62,12.2a6.71,6.71,0,0,0,9-3.61A7.21,7.21,0,0,0,17.26,14.08Z"/><path class="cls-2" d="M10.16,20C6.61,21.34,0,31.31,0,31.31s11.84,3.12,15.38,1.8a6.76,6.76,0,0,0,3.82-8.93A7.16,7.16,0,0,0,10.16,20Z"/><path class="cls-3" d="M45.72,13.57C56.35,24.22,57.59,47.46,52.59,52.5s-28.08,3.84-38.75-6.85c-7.87-7.88-4.21-19.79,4-28S37.85,5.69,45.72,13.57Z"/><path class="cls-4" d="M35.75,12.66a1.33,1.33,0,0,0-1.15.52c-.49.71-.05,1.87,1,2.59a2.82,2.82,0,0,0,1.61.54,1.33,1.33,0,0,0,1.15-.52c.49-.7.06-1.86-1-2.58a2.84,2.84,0,0,0-1.61-.55"/><path class="cls-4" d="M39.14,28.83a1.22,1.22,0,0,0-.81.29c-.65.56-.5,1.79.32,2.74a2.63,2.63,0,0,0,1.87,1,1.21,1.21,0,0,0,.81-.28c.65-.57.5-1.79-.33-2.75a2.61,2.61,0,0,0-1.86-1"/><path class="cls-4" d="M31.16,20.86a1.17,1.17,0,0,0-.78.27c-.66.55-.54,1.79.27,2.75a2.62,2.62,0,0,0,1.88,1,1.22,1.22,0,0,0,.79-.27c.65-.55.53-1.78-.28-2.75a2.62,2.62,0,0,0-1.88-1"/><path class="cls-4" d="M44.77,21.76a1.17,1.17,0,0,0-.55.13c-.75.42-.87,1.65-.27,2.75A2.43,2.43,0,0,0,45.87,26a1.07,1.07,0,0,0,.55-.14c.75-.41.87-1.64.27-2.75a2.42,2.42,0,0,0-1.92-1.38"/><path class="cls-4" d="M49,34a1.27,1.27,0,0,0-.28,0c-.83.22-1.25,1.39-.93,2.61s1.06,1.84,1.81,1.84a1.27,1.27,0,0,0,.28,0c.83-.22,1.25-1.39.93-2.6S49.77,34,49,34"/><path class="cls-4" d="M48,45.42a1.24,1.24,0,0,0-.84.3c-.63.57-.46,1.8.38,2.73a2.66,2.66,0,0,0,1.86.95,1.26,1.26,0,0,0,.83-.3c.64-.58.47-1.81-.38-2.74A2.62,2.62,0,0,0,48,45.42"/><path class="cls-4" d="M27.47,44a1.37,1.37,0,0,0-1.19.54c-.48.72,0,1.87,1,2.57a3,3,0,0,0,1.58.51,1.39,1.39,0,0,0,1.19-.54c.47-.72,0-1.86-1-2.56A2.85,2.85,0,0,0,27.47,44"/><path class="cls-4" d="M16.8,41a1.41,1.41,0,0,0-1.19.55c-.48.71,0,1.86,1,2.56a2.88,2.88,0,0,0,1.58.52,1.34,1.34,0,0,0,1.18-.55c.48-.71,0-1.86-1-2.56A3,3,0,0,0,16.8,41"/><path class="cls-4" d="M36.62,48.47a1.56,1.56,0,0,0-1.54.82c-.32.8.37,1.83,1.54,2.3a3.06,3.06,0,0,0,1.15.23A1.56,1.56,0,0,0,39.32,51c.32-.79-.37-1.82-1.54-2.29a3.07,3.07,0,0,0-1.16-.23"/><path class="cls-4" d="M38.66,39.26a1.41,1.41,0,0,0-1.28.61c-.44.74.09,1.86,1.17,2.5a3,3,0,0,0,1.48.44,1.44,1.44,0,0,0,1.28-.62c.44-.74-.09-1.86-1.17-2.5a3,3,0,0,0-1.48-.43"/><path class="cls-4" d="M28.8,32.72a1.29,1.29,0,0,0-1,.43c-.55.66-.21,1.85.76,2.66a2.81,2.81,0,0,0,1.72.68,1.3,1.3,0,0,0,1-.43c.54-.66.2-1.85-.77-2.66a2.81,2.81,0,0,0-1.72-.68"/><path class="cls-4" d="M20.79,20.23a1.22,1.22,0,0,0-.89.34c-.61.6-.39,1.82.5,2.72a2.66,2.66,0,0,0,1.82.86,1.22,1.22,0,0,0,.89-.34c.61-.6.39-1.82-.49-2.71a2.68,2.68,0,0,0-1.83-.87"/><path class="cls-4" d="M18.16,30.25a1.35,1.35,0,0,0-1.07.45c-.53.68-.16,1.86.83,2.64a2.81,2.81,0,0,0,1.69.65,1.28,1.28,0,0,0,1.06-.46c.54-.67.17-1.85-.82-2.63a2.81,2.81,0,0,0-1.69-.65"/></g></g></svg>